<?xml version="1.0" encoding="UTF-8" standalone="no"?>
<svg
   xmlns:dc="http://purl.org/dc/elements/1.1/"
   xmlns:cc="http://creativecommons.org/ns#"
   xmlns:rdf="http://www.w3.org/1999/02/22-rdf-syntax-ns#"
   xmlns:svg="http://www.w3.org/2000/svg"
   xmlns="http://www.w3.org/2000/svg"
   xmlns:sodipodi="http://sodipodi.sourceforge.net/DTD/sodipodi-0.dtd"
   xmlns:inkscape="http://www.inkscape.org/namespaces/inkscape"
   id="svg2"
   version="1.1"
   inkscape:version="0.47 r22583"
   width="238.28999"
   height="86.875"
   xml:space="preserve"
   sodipodi:docname="VMW_10Q1_LGO_GUIDE_USLET_EN_R1.pdf"><metadata
     id="metadata8"><rdf:RDF><cc:Work
         rdf:about=""><dc:format>image/svg+xml</dc:format><dc:type
           rdf:resource="http://purl.org/dc/dcmitype/StillImage" /><dc:title></dc:title></cc:Work></rdf:RDF></metadata><defs
     id="defs6"><inkscape:perspective
       sodipodi:type="inkscape:persp3d"
       inkscape:vp_x="0 : 0.5 : 1"
       inkscape:vp_y="0 : 1000 : 0"
       inkscape:vp_z="1 : 0.5 : 1"
       inkscape:persp3d-origin="0.5 : 0.33333333 : 1"
       id="perspective10" /><clipPath
       clipPathUnits="userSpaceOnUse"
       id="clipPath20"><path
         d="M 0,792 612,792 612,0 0,0 0,792 z"
         id="path22" /></clipPath><clipPath
       clipPathUnits="userSpaceOnUse"
       id="clipPath130"><path
         d="M 0,0 612,0 612,792 0,792 0,0 z"
         id="path132" /></clipPath><clipPath
       clipPathUnits="userSpaceOnUse"
       id="clipPath168"><path
         d="M 0,0 612,0 612,792 0,792 0,0 z"
         id="path170" /></clipPath></defs><sodipodi:namedview
     pagecolor="#ffffff"
     bordercolor="#666666"
     borderopacity="1"
     objecttolerance="10"
     gridtolerance="10"
     guidetolerance="10"
     inkscape:pageopacity="0"
     inkscape:pageshadow="2"
     inkscape:window-width="1024"
     inkscape:window-height="514"
     id="namedview4"
     showgrid="false"
     inkscape:zoom="0.72880595"
     inkscape:cx="6.645"
     inkscape:cy="29.957033"
     inkscape:window-x="-8"
     inkscape:window-y="-8"
     inkscape:window-maximized="1"
     inkscape:current-layer="g12" /><g
     id="g12"
     inkscape:groupmode="layer"
     inkscape:label="VMW_10Q1_LGO_GUIDE_USLET_EN_R1"
     transform="matrix(1.25,0,0,-1.25,-375.855,370.03)"><g
       id="g164"><g
         id="g166"
         clip-path="url(#clipPath168)"><g
           id="g172"
           transform="translate(388.349,250.8558)"><path
             d="m 0,0 -6.571,18.298 c -0.085,0.253 -0.21,0.587 -0.21,0.88 0,0.793 0.671,1.546 1.63,1.546 0.838,0 1.384,-0.543 1.635,-1.337 L 1.928,3.62 7.411,19.431 c 0.25,0.75 0.754,1.293 1.587,1.293 l 0.17,0 c 0.881,0 1.425,-0.543 1.675,-1.293 L 16.282,3.62 21.814,19.469 c 0.209,0.672 0.666,1.255 1.547,1.255 0.921,0 1.591,-0.708 1.591,-1.505 0,-0.293 -0.126,-0.625 -0.208,-0.88 L 18.13,0 c -0.338,-0.958 -1.006,-1.461 -1.76,-1.461 l -0.125,0 c -0.838,0 -1.468,0.503 -1.762,1.461 L 9.087,15.549 3.643,0 C 3.35,-0.958 2.72,-1.461 1.885,-1.461 l -0.087,0 C 1.004,-1.461 0.336,-0.958 0,0"
             style="fill:#696566;fill-opacity:1;fill-rule:nonzero;stroke:none"
             id="path174" /></g><g
           id="g176"
           transform="translate(436.2494,269.9846)"><path
             d="M 0,0 C 0,0.883 0.712,1.637 1.591,1.637 2.517,1.637 3.228,0.924 3.228,0 l 0,-3.713 c 1.592,3.607 5.123,5.308 7.463,5.308 0.968,0 1.598,-0.712 1.598,-1.634 0,-0.882 -0.585,-1.508 -1.431,-1.635 -4.194,-0.503 -7.63,-3.649 -7.63,-9.9 l 0,-7.351 c 0,-0.881 -0.67,-1.634 -1.592,-1.634 -0.924,0 -1.636,0.715 -1.636,1.634 L 0,0 z"
             style="fill:#696566;fill-opacity:1;fill-rule:nonzero;stroke:none"
             id="path178" /></g><g
           id="g180"
           transform="translate(458.8979,249.2209)"><path
             d="m 0,0 c -5.837,0 -10.603,4.526 -10.603,11.165 l 0,0.086 c 0,6.183 4.315,11.164 10.193,11.164 6.282,0 9.86,-5.185 9.86,-10.873 0,-0.874 -0.704,-1.499 -1.481,-1.499 l -15.363,0 c 0.449,-4.645 3.693,-7.26 7.477,-7.26 2.631,0 4.557,1.038 6.12,2.49 C 6.45,5.48 6.737,5.646 7.11,5.646 7.887,5.646 8.506,5.023 8.506,4.273 8.506,3.901 8.342,3.527 8.01,3.239 5.998,1.29 3.613,0 0,0 m 6.286,12.411 c -0.329,3.904 -2.55,7.305 -6.782,7.305 -3.698,0 -6.493,-3.111 -6.898,-7.305 l 13.68,0 z"
             style="fill:#696566;fill-opacity:1;fill-rule:nonzero;stroke:none"
             id="path182" /></g><g
           id="g184"
           transform="translate(413.3598,255.9408)"><path
             d="m 0,0 0,0.085 c 0,4.556 3.764,6.983 9.238,6.983 2.761,0 4.725,-0.376 6.653,-0.922 l 0,0.756 c 0,3.885 -2.39,5.895 -6.441,5.895 -2.176,0 -3.442,-0.277 -5.033,-0.986 C 4.21,11.727 4,11.684 3.836,11.684 c -0.753,0 -1.424,0.629 -1.424,1.38 0,0.667 0.291,1.08 0.879,1.341 2.129,0.924 3.735,1.231 6.492,1.231 3.051,0 5.393,-0.792 6.979,-2.382 1.465,-1.463 2.218,-3.553 2.218,-6.314 l 0,-11.929 c 0,-0.917 -0.669,-1.587 -1.551,-1.587 -0.915,0 -1.538,0.67 -1.538,1.505 l 0,2.063 C 14.384,-4.976 11.872,-6.73 8.074,-6.73 4.058,-6.73 0,-4.432 0,0 m 15.931,1.673 0,2.091 C 14.339,4.224 12.204,4.685 9.573,4.685 5.522,4.685 3.261,2.927 3.261,0.212 l 0,-0.084 c 0,-2.717 2.507,-4.306 5.436,-4.306 3.969,0 7.234,2.426 7.234,5.851"
             style="fill:#696566;fill-opacity:1;fill-rule:nonzero;stroke:none"
             id="path186" /></g><g
           id="g188"
           transform="translate(329.7792,270.223)"><path
             d="M 0,0 C -0.708,1.553 -2.458,2.256 -4.092,1.529 -5.728,0.802 -6.33,-1.012 -5.591,-2.565 L 1.27,-17.477 c 1.079,-2.338 2.216,-3.563 4.35,-3.563 2.28,0 3.274,1.334 4.352,3.563 0,0 5.984,13.03 6.044,13.166 0.061,0.137 0.253,0.558 0.862,0.554 0.515,-0.003 0.948,-0.414 0.948,-0.965 l 0,-12.743 c 0,-1.964 1.089,-3.575 3.185,-3.575 2.094,0 3.226,1.611 3.226,3.575 l 0,10.427 c 0,2.011 1.441,3.315 3.405,3.315 1.964,0 3.271,-1.351 3.271,-3.315 l 0,-10.427 c 0,-1.964 1.093,-3.575 3.185,-3.575 2.094,0 3.232,1.611 3.232,3.575 l 0,10.427 c 0,2.011 1.435,3.315 3.4,3.315 1.961,0 3.273,-1.351 3.273,-3.315 l 0,-10.427 c 0,-1.964 1.092,-3.575 3.186,-3.575 2.092,0 3.228,1.611 3.228,3.575 l 0,11.867 c 0,4.362 -3.506,7.416 -7.726,7.416 -4.215,0 -6.855,-2.916 -6.855,-2.916 -1.403,1.819 -3.337,2.913 -6.61,2.913 -3.454,0 -6.477,-2.913 -6.477,-2.913 -1.404,1.819 -3.794,2.913 -5.773,2.913 -3.061,0 -5.492,-1.346 -6.975,-4.737 L 5.62,-13.249 0,0 z"
             style="fill:#696566;fill-opacity:1;fill-rule:nonzero;stroke:none"
             id="path190" /></g><g
           id="g192"
           transform="translate(468.6088,268.931)"><path
             d="m 0,0 0,0.018 c 0,1.459 1.184,2.687 2.672,2.687 1.509,0 2.676,-1.216 2.676,-2.676 l 0,-0.011 C 5.348,-1.446 4.167,-2.675 2.672,-2.675 1.163,-2.675 0,-1.463 0,0 m 4.834,0.018 0,0.007 c 0,1.2 -0.927,2.184 -2.162,2.184 -1.225,0 -2.166,-1.001 -2.166,-2.191 l 0,-0.014 c 0,-1.197 0.93,-2.181 2.166,-2.181 1.221,0 2.162,0.999 2.162,2.195"
             style="fill:#696566;fill-opacity:1;fill-rule:nonzero;stroke:none"
             id="path194" /></g><g
           id="g196"
           transform="translate(470.2572,270.0067)"><path
             d="m 0,0 c 0,0.159 0.127,0.286 0.288,0.286 l 0.893,0 c 0.335,0 0.595,-0.095 0.756,-0.265 0.147,-0.143 0.226,-0.35 0.226,-0.59 l 0,-0.008 c 0,-0.408 -0.206,-0.657 -0.517,-0.788 l 0.393,-0.481 c 0.055,-0.071 0.093,-0.131 0.093,-0.218 0,-0.158 -0.134,-0.263 -0.271,-0.263 -0.126,0 -0.212,0.065 -0.28,0.147 l -0.555,0.702 -0.455,0 0,-0.564 C 0.571,-2.201 0.448,-2.327 0.288,-2.327 0.127,-2.327 0,-2.201 0,-2.042 L 0,0 z m 1.149,-0.972 c 0.278,0 0.432,0.145 0.432,0.365 l 0,0.009 c 0,0.242 -0.164,0.371 -0.441,0.371 l -0.569,0 0,-0.745 0.578,0 z"
             style="fill:#696566;fill-opacity:1;fill-rule:nonzero;stroke:none"
             id="path198" /></g></g></g></g></svg>
